<?xml version="1.0" standalone="no"?>
<!DOCTYPE svg PUBLIC "-//W3C//DTD SVG 20010904//EN"
 "http://www.w3.org/TR/2001/REC-SVG-20010904/DTD/svg10.dtd">
<svg version="1.0" xmlns="http://www.w3.org/2000/svg"
 width="182.000000pt" height="195.000000pt" viewBox="0 0 182.000000 195.000000"
 preserveAspectRatio="xMidYMid meet">
<metadata>
Created by potrace 1.11, written by Peter Selinger 2001-2013
</metadata>
<g transform="translate(0.000000,195.000000) scale(0.100000,-0.100000)"
fill="#000000" stroke="none">
<path d="M1647 1920 c-8 -19 -38 -87 -65 -150 -67 -157 -194 -420 -202 -420
-3 0 -13 33 -22 73 -11 55 -17 67 -23 52 -4 -11 -32 -76 -61 -143 -185 -432
-521 -845 -805 -988 -38 -19 -69 -35 -69 -37 0 -1 33 -1 73 1 128 7 132 4 56
-50 -140 -101 -327 -189 -462 -219 -104 -23 -41 -32 177 -26 218 6 338 23 526
76 348 98 701 293 916 506 115 114 129 167 121 445 -7 231 -56 556 -131 860
l-13 55 -16 -35z"/>
</g>
</svg>
