<?xml version="1.0" encoding="utf-8"?>
<!-- Generator: Adobe Illustrator 19.1.0, SVG Export Plug-In . SVG Version: 6.00 Build 0)  -->
<svg version="1.1" id="Layer_1" xmlns="http://www.w3.org/2000/svg" xmlns:xlink="http://www.w3.org/1999/xlink" x="0px" y="0px"
	 viewBox="-67.6 -82.4 342 395.6" style="enable-background:new -67.6 -82.4 342 395.6;" xml:space="preserve">
<style type="text/css">
	.st0{fill:url(#SVGID_1_);}
	.st1{fill:url(#SVGID_2_);}
	.st2{fill:#1C75BC;}
</style>
<g>
	<g>
		
			<linearGradient id="SVGID_1_" gradientUnits="userSpaceOnUse" x1="396.324" y1="815.1895" x2="759.3099" y2="815.1895" gradientTransform="matrix(-0.3568 0.9342 -0.9342 -0.3568 1094.8105 -170.3666)">
			<stop  offset="0" style="stop-color:#2B3990"/>
			<stop  offset="0.1564" style="stop-color:#1E62A7"/>
			<stop  offset="0.3217" style="stop-color:#1485BC"/>
			<stop  offset="0.4893" style="stop-color:#0BA1CC"/>
			<stop  offset="0.6576" style="stop-color:#05B4D7"/>
			<stop  offset="0.8272" style="stop-color:#01C0DE"/>
			<stop  offset="1" style="stop-color:#00C4E0"/>
		</linearGradient>
		<path class="st0" d="M-37.7,209.9C94.9,223,201.5,144.7,228,111.3c26.6-33.7-13.7-193.7-13.7-193.7
			C170.7,24.5,91.3,186.9-37.7,209.9L-37.7,209.9z"/>
		
			<linearGradient id="SVGID_2_" gradientUnits="userSpaceOnUse" x1="425.5956" y1="824.032" x2="639.2216" y2="824.032" gradientTransform="matrix(-0.2988 0.9543 -0.9543 -0.2988 1059.6976 -178.8485)">
			<stop  offset="0" style="stop-color:#2B3990"/>
			<stop  offset="0.1564" style="stop-color:#1E62A7"/>
			<stop  offset="0.3217" style="stop-color:#1485BC"/>
			<stop  offset="0.4893" style="stop-color:#0BA1CC"/>
			<stop  offset="0.6576" style="stop-color:#05B4D7"/>
			<stop  offset="0.8272" style="stop-color:#01C0DE"/>
			<stop  offset="1" style="stop-color:#00C4E0"/>
		</linearGradient>
		<path class="st1" d="M22.9,166.3c77.4,2.9,136.3-46.3,150.5-66.8c14.2-20.3-7.6-112.3-7.6-112.3C144.4,51,84.5,143.7,22.9,166.3
			L22.9,166.3z"/>
	</g>
	<g>
		<path class="st2" d="M-62.2,278.5c2.3,2.5,5,4.5,8.3,5.9c3.2,1.4,6.5,2.2,9.9,2.2c4.3,0,7.7-0.9,10.1-2.9c2.3-2,3.6-4.5,3.6-7.7
			c0-1.6-0.4-3.1-0.9-4.3c-0.5-1.1-1.3-2.2-2.3-3.1c-0.9-0.9-2.2-1.6-3.4-2.2c-1.3-0.7-2.7-1.4-4.3-2.2l-9.4-4.1
			c-1.6-0.7-3.1-1.4-4.7-2.3c-1.6-0.9-3.1-2-4.3-3.4c-1.3-1.3-2.3-2.9-3.1-4.7c-0.7-1.8-1.3-4-1.3-6.3c0-2.5,0.5-4.7,1.6-6.8
			c1.1-2.2,2.5-4,4.3-5.6c1.8-1.6,4-2.7,6.5-3.6c2.5-0.9,5.2-1.3,8.3-1.3c4,0,7.6,0.7,10.8,2.2c3.2,1.4,6.1,3.4,8.5,5.8l-4.5,5.4
			c-2-2-4.1-3.4-6.7-4.5c-2.3-1.1-5.2-1.6-8.3-1.6c-3.6,0-6.7,0.9-8.8,2.5c-2.2,1.6-3.4,4-3.4,7c0,1.6,0.4,2.9,0.9,4
			c0.7,1.1,1.4,2,2.5,2.9c1.1,0.9,2.2,1.6,3.4,2.2c1.3,0.7,2.5,1.3,4,1.8l9.4,4c1.8,0.7,3.6,1.8,5.2,2.7c1.6,1.1,3.1,2.2,4.3,3.6
			s2.2,2.9,2.9,4.9c0.7,1.8,1.1,4,1.1,6.3c0,2.5-0.5,5-1.6,7.2c-1.1,2.3-2.5,4.3-4.5,5.9c-2,1.6-4.3,3.1-7,4
			c-2.7,0.9-5.8,1.4-9.4,1.4c-4.5,0-8.8-0.9-12.8-2.5c-4-1.8-7.4-4.1-10.3-7L-62.2,278.5z"/>
		<path class="st2" d="M-11.8,296.8v16.4h-8.1v-68.9h6.8l0.7,5.6h0.4c2.2-1.8,4.7-3.4,7.2-4.9c2.7-1.3,5.4-2,8.3-2
			c3.1,0,5.9,0.5,8.3,1.8c2.3,1.1,4.3,2.9,5.9,5c1.6,2.2,2.9,4.7,3.6,7.7c0.9,3.1,1.3,6.5,1.3,10.3c0,4.1-0.5,7.7-1.6,11
			c-1.1,3.2-2.7,5.9-4.5,8.3c-2,2.3-4.1,4-6.7,5.2c-2.5,1.1-5.2,1.8-7.9,1.8c-2.3,0-4.5-0.5-6.7-1.4c-2.2-1.1-4.5-2.3-6.7-4.1
			L-11.8,296.8z M-11.8,281.9c2.2,1.8,4.3,3.2,6.3,4c2,0.7,4,1.1,5.4,1.1c2,0,3.8-0.4,5.6-1.3c1.6-0.9,3.2-2.2,4.3-3.8
			c1.3-1.6,2.2-3.6,2.9-6.1c0.7-2.3,1.1-5,1.1-8.1c0-2.7-0.2-5-0.7-7.2c-0.5-2.2-1.3-4.1-2.2-5.6c-1.1-1.6-2.3-2.7-4-3.6
			c-1.6-0.9-3.6-1.3-5.8-1.3c-2,0-4.1,0.5-6.3,1.6c-2.2,1.1-4.3,2.7-6.7,4.9L-11.8,281.9L-11.8,281.9z"/>
		<path class="st2" d="M29.6,234.2c-1.6,0-2.9-0.5-4-1.4c-1.1-1.1-1.6-2.3-1.6-3.8c0-1.6,0.5-2.9,1.6-3.8s2.5-1.4,4-1.4
			c1.6,0,2.9,0.5,4,1.4c1.1,0.9,1.6,2.2,1.6,3.8c0,1.6-0.5,2.9-1.6,3.8C32.7,233.7,31.2,234.2,29.6,234.2z M25.5,244.3h8.1v48.4
			h-8.1V244.3z"/>
		<path class="st2" d="M40,244.3h6.8l0.7,7H48c2.3-2.3,4.9-4.3,7.4-5.8c2.5-1.6,5.6-2.3,9-2.3c5,0,8.8,1.6,11.2,4.9
			c2.3,3.2,3.6,7.9,3.6,14.2v30.8H71v-29.7c0-4.5-0.7-7.9-2.2-9.9c-1.4-2-3.8-3.1-7-3.1c-2.5,0-4.7,0.7-6.7,2s-4.1,3.1-6.7,5.6v35.1
			h-8.1v-48.8H40z"/>
		<path class="st2" d="M84.7,244.3h6.8l0.7,7h0.4c2.3-2.3,4.9-4.3,7.4-5.8c2.5-1.6,5.6-2.3,9-2.3c5,0,8.8,1.6,11.2,4.9
			c2.3,3.2,3.6,7.9,3.6,14.2v30.8h-8.5v-29.7c0-4.5-0.7-7.9-2.2-9.9c-1.4-2-3.8-3.1-7-3.1c-2.5,0-4.7,0.7-6.7,2s-4.1,3.1-6.7,5.6
			v35.1h-8.1V244.3z"/>
		<path class="st2" d="M126.8,280.1c0-5.4,2.3-9.4,7.2-12.2c4.7-2.9,12.2-4.9,22.7-5.9c0-1.4-0.2-3.1-0.4-4.5
			c-0.4-1.4-0.9-2.7-1.6-4c-0.7-1.1-1.8-2-3.1-2.7c-1.3-0.7-2.9-1.1-4.9-1.1c-2.9,0-5.6,0.5-7.9,1.6c-2.3,1.1-4.7,2.3-6.5,3.6
			l-3.2-5.8c2.3-1.4,5-2.9,8.3-4.3c3.2-1.4,6.8-2,10.8-2c5.9,0,10.3,1.8,13,5.4c2.7,3.6,4,8.5,4,14.6v29.7h-6.8l-0.7-5.8h-0.2
			c-2.3,2-4.9,3.6-7.6,4.9c-2.7,1.4-5.6,2-8.5,2c-4.1,0-7.6-1.3-10.3-3.6C128.2,287.8,126.8,284.6,126.8,280.1z M134.9,279.6
			c0,2.9,0.9,4.9,2.5,5.9c1.6,1.3,3.6,1.8,6.1,1.8c2.3,0,4.5-0.5,6.7-1.6c2.2-1.1,4.3-2.7,6.7-4.9v-13.5c-4.1,0.5-7.6,1.1-10.3,2
			c-2.9,0.7-5,1.6-6.7,2.5c-1.6,1.1-2.9,2.2-3.6,3.4C135.3,276.7,134.9,277.9,134.9,279.6z"/>
		<path class="st2" d="M170.4,221.6h8.1v48.1h0.4l20.7-25.6h9l-16.2,19.4l18.5,29h-9l-14.2-23.4l-9,10.6v12.8h-8.1v-70.9H170.4z"/>
		<path class="st2" d="M204.4,268.6c0-4,0.5-7.6,1.8-10.8c1.3-3.2,2.9-5.8,4.9-8.1c2-2.2,4.3-4,7-5c2.5-1.1,5.2-1.8,8.1-1.8
			c3.1,0,5.8,0.5,8.3,1.6c2.3,1.1,4.5,2.5,6.1,4.5s2.9,4.3,3.8,7.2c0.9,2.9,1.3,5.9,1.3,9.4c0,1.8-0.2,3.2-0.4,4.5h-32.8
			c0.4,5.2,2,9.4,4.9,12.4c2.9,3.1,6.7,4.5,11.3,4.5c2.3,0,4.5-0.4,6.5-1.1c2-0.7,3.8-1.6,5.6-2.7l2.9,5.4c-2.2,1.3-4.5,2.5-7,3.4
			c-2.5,1.1-5.6,1.4-8.8,1.4s-6.3-0.5-9.2-1.8c-2.9-1.1-5.2-2.9-7.4-5c-2.2-2.2-3.8-4.9-4.9-7.9
			C204.9,276.1,204.4,272.5,204.4,268.6z M238.2,264.8c0-5-1.1-8.8-3.1-11.3c-2.2-2.7-5-4-8.8-4c-1.8,0-3.4,0.4-4.9,1.1
			c-1.6,0.7-3.1,1.6-4.3,3.1c-1.3,1.3-2.3,2.9-3.1,4.9c-0.9,2-1.4,4.1-1.6,6.5h25.7V264.8z"/>
		<path class="st2" d="M247.4,244.3h6.8l0.7,8.8h0.4c1.6-3.1,3.6-5.4,6.1-7.2c2.3-1.8,4.9-2.7,7.7-2.7c2,0,3.6,0.4,5.2,1.1l-1.6,7.2
			c-0.7-0.2-1.6-0.5-2.2-0.5c-0.7-0.2-1.4-0.2-2.5-0.2c-2,0-4.1,0.9-6.5,2.5c-2.2,1.6-4.1,4.5-5.8,8.6v31.1h-8.1v-48.8H247.4z"/>
	</g>
</g>
</svg>
